# xmcd CD database file
#
# Track frame offsets:
#	150
#	16205
#	30362
#	51232
#	62020
#
# Disc length: 1077 seconds
#
# Revision: 0
# Processed by: cddbd v1.4PL0 Copyright (c) Steve Scherf et al.
# Submitted via: CDex 1.50Beta7
#
DISCID=34043305
DTITLE=Gerling - Death To The Apple Gerls
DYEAR=1998
DGENRE=New Age
TTITLE0=Death To The Apple Gerls
TTITLE1=Spiritual Guide
TTITLE2=Tweakin' Puerto Rican
TTITLE3=1998 Chores
TTITLE4=Everyone's A DJ
EXTD=YEAR: 1998
EXTT0=
EXTT1=
EXTT2=
EXTT3=
EXTT4=
PLAYORDER=
